HIERARCHY
ROOT root
{
	OFFSET	0	13.1	24.9
	CHANNELS 6  Xposition Yposition Zposition Xrotation Yrotation Zrotation
	JOINT spine_1
	{
		OFFSET	0	9.99999	0
		CHANNELS 3  Xrotation Yrotation Zrotation
		JOINT spine_2
		{
			OFFSET	0	112	-10
			CHANNELS 3  Xrotation Yrotation Zrotation
			JOINT spine_3
			{
				OFFSET	0	206.5	19.3
				CHANNELS 3  Xrotation Yrotation Zrotation
				JOINT spine_4
				{
					OFFSET	0	110.4	14.6
					CHANNELS 3  Xrotation Yrotation Zrotation
					JOINT neck_1
					{
						OFFSET	0	71.8	-50.3
						CHANNELS 3  Xrotation Yrotation Zrotation
						JOINT neck_2
						{
							OFFSET	0	86.2	-25.8
							CHANNELS 3  Xrotation Yrotation Zrotation
							JOINT head_ee
							{
								OFFSET	0	179.8	-8.7
								CHANNELS 3  Xrotation Yrotation Zrotation
								End Site
								{
									OFFSET	1	0	0
								}
							}
						}
					}
					JOINT left_clavicle
					{
						OFFSET	-43.2	22.4	-70.8
						CHANNELS 3  Xrotation Yrotation Zrotation
						JOINT left_shoulder
						{
							OFFSET	-93.9	-5.79999	48.7
							CHANNELS 3  Xrotation Yrotation Zrotation
							JOINT left_elbow
							{
								OFFSET	-291.4	-30.8	15.2
								CHANNELS 3  Xrotation Yrotation Zrotation
								JOINT left_lowarm_twist
								{
									OFFSET	-110.7	-3.89999	13.6
									CHANNELS 3  Xrotation Yrotation Zrotation
									JOINT left_hand
									{
										OFFSET	-110.7	-3.89999	13.6
										CHANNELS 3  Xrotation Yrotation Zrotation
										JOINT left_ee
										{
											OFFSET	-80.8	-5.10001	12.1
											CHANNELS 3  Xrotation Yrotation Zrotation
											End Site
											{
												OFFSET	1	0	0
											}
										}
									}
								}
							}
						}
					}
					JOINT right_clavicle
					{
						OFFSET	43.2	22.4	-70.8
						CHANNELS 3  Xrotation Yrotation Zrotation
						JOINT right_shoulder
						{
							OFFSET	93.9	-5.79999	48.7
							CHANNELS 3  Xrotation Yrotation Zrotation
							JOINT right_elbow
							{
								OFFSET	291.4	-30.8	15.2
								CHANNELS 3  Xrotation Yrotation Zrotation
								JOINT right_lowarm_twist
								{
									OFFSET	110.7	-3.89999	13.6
									CHANNELS 3  Xrotation Yrotation Zrotation
									JOINT right_hand
									{
										OFFSET	110.7	-3.89999	13.6
										CHANNELS 3  Xrotation Yrotation Zrotation
										JOINT right_ee
										{
											OFFSET	80.8	-5.10001	12.1
											CHANNELS 3  Xrotation Yrotation Zrotation
											End Site
											{
												OFFSET	1	0	0
											}
										}
									}
								}
							}
						}
					}
				}
			}
		}
	}
	JOINT left_hip
	{
		OFFSET	-82.8	-127.5	0.300001
		CHANNELS 3  Xrotation Yrotation Zrotation
		JOINT left_knee
		{
			OFFSET	-28.2	-396.7	2.2
			CHANNELS 3  Xrotation Yrotation Zrotation
			JOINT left_ankle
			{
				OFFSET	-11.7	-411.3	35.4
				CHANNELS 3  Xrotation Yrotation Zrotation
				JOINT left_toes
				{
					OFFSET	0	-60	-88.6
					CHANNELS 3  Xrotation Yrotation Zrotation
					JOINT left_foot_ee
					{
						OFFSET	-22.5	-16.5	-42.2
						CHANNELS 3  Xrotation Yrotation Zrotation
						End Site
						{
							OFFSET	1	0	0
						}
					}
				}
			}
		}
	}
	JOINT right_hip
	{
		OFFSET	82.8	-127.5	0.300001
		CHANNELS 3  Xrotation Yrotation Zrotation
		JOINT right_knee
		{
			OFFSET	28.2	-396.7	2.2
			CHANNELS 3  Xrotation Yrotation Zrotation
			JOINT right_ankle
			{
				OFFSET	11.7	-411.3	35.4
				CHANNELS 3  Xrotation Yrotation Zrotation
				JOINT right_toes
				{
					OFFSET	0	-60	-88.6
					CHANNELS 3  Xrotation Yrotation Zrotation
					JOINT right_foot_ee
					{
						OFFSET	22.5	-16.5	-42.2
						CHANNELS 3  Xrotation Yrotation Zrotation
						End Site
						{
							OFFSET	1	0	0
						}
					}
				}
			}
		}
	}
}
MOTION
Frames: 8
Frame Time: 0.02
2800.94 716.97 -1473.77 -5.40731930327 45.571569819 -3.02970090511 2.68167 0.72523 3.38644 2.68791 0.508402 3.42566 2.71709 -0.0586236 3.46264 2.70069 0.488644 3.42853 -8.21577 20.5592 0.272576 -8.46572 38.3232 5.05866 -0.0 0.0 -0.0 -3.17666 17.4901 -2.84488 2.0831 -4.12315 47.3106 12.3364 -80.636 10.48 3.09046 0.0985901 -0.382378 0.157639 -5.80547 -1.39808 -0.0 0.0 -0.0 11.5851 12.2072 -23.325 -35.7377 45.8954 -61.1382 0.902727 24.0931 -0.192651 18.6775 -0.275718 2.35941 -5.9667 -27.2591 22.8007 0.0 0.0 0.0 -29.064 37.4451 23.0279 -11.0453 0.294879 1.66682 33.2957 -21.6918 -4.7629 -16.3782 0.0 0.0 -0.0 0.0 -0.0 37.2481 44.7773 -18.7642 -0.134503 -0.00551522 -0.0199039 -15.7661 3.40216 -2.41877 22.1198 -0.0 -0.0 0.0 0.0 0.0 
2781.07712783 717.588 -1480.57003009 -5.11517722815 45.8326993183 -3.55964510447 2.61771 0.787077 3.42727 2.62406 0.567532 3.47033 2.65735 -0.0111609 3.51636 2.64051 0.543982 3.4741 -7.23454 20.6058 0.284764 -7.29981 38.233 4.697 -0.0 0.0 -0.0 -3.28071 17.8734 -2.92844 1.11527 -3.94299 47.6435 12.1635 -80.5073 10.3094 2.84494 0.0915142 -0.351814 0.0856457 -6.27251 -2.08259 -0.0 0.0 -0.0 11.6327 12.1777 -23.4328 -34.1123 46.2011 -61.1447 0.947594 25.1454 -0.211343 19.0972 -0.27302 2.41295 -5.85675 -26.6956 22.5943 0.0 0.0 0.0 -27.9445 37.4231 22.1323 -13.8863 0.318363 2.10205 32.7475 -22.5917 -4.74231 -16.6057 0.0 0.0 -0.0 0.0 -0.0 36.7879 44.7373 -18.5624 -0.741523 -0.029822 -0.109887 -13.3736 3.01999 -2.04449 21.9973 -0.0 -0.0 0.0 0.0 0.0 
2762.61112409 722.23 -1489.86258436 -5.81735134662 45.788247626 -2.99319981843 2.60863 0.806973 3.54923 2.61545 0.579641 3.59331 2.65065 -0.0198659 3.63965 2.63259 0.55482 3.59722 -5.83696 20.8126 -0.188696 -5.63405 38.6992 3.72596 -0.0 0.0 -0.0 -3.37278 18.1583 -3.01163 0.172251 -3.74207 47.754 10.4223 -78.9792 8.59592 2.68584 0.0868589 -0.332024 0.0413425 -6.3251 -2.40412 -0.0 0.0 -0.0 12.038 11.9153 -24.3545 -31.8936 46.841 -61.3797 0.972303 25.7173 -0.221954 19.3996 -0.270834 2.45151 -5.80577 -26.3369 22.5742 0.0 0.0 0.0 -26.9704 37.2698 20.5033 -15.3672 0.322041 2.32922 32.7832 -23.2489 -4.77595 -16.7619 0.0 0.0 -0.0 0.0 -0.0 36.3298 44.418 -18.1531 -1.19091 -0.0472012 -0.176663 -12.4899 2.84128 -1.90637 22.0788 -0.0 -0.0 0.0 0.0 0.0 
2739.54290197 723.208 -1494.93154186 -5.5501663001 46.0603569107 -3.54043319033 2.54623 0.925633 3.70812 2.55362 0.687972 3.7594 2.5977 0.0563237 3.82133 2.57793 0.658692 3.76464 -3.19661 20.9249 -1.29259 -2.45079 39.2013 1.58727 -0.0 0.0 -0.0 -3.99772 18.7131 -3.84751 -2.26302 -3.62717 48.6909 12.9738 -81.0813 11.1093 2.5434 0.0826443 -0.314318 0.130267 -6.64962 -1.94185 -0.0 0.0 -0.0 11.6163 10.7846 -23.4103 -31.0096 47.0307 -61.4982 1.00819 26.5383 -0.23776 19.7022 -0.268442 2.49009 -5.58969 -24.9967 22.3094 0.0 0.0 0.0 -26.7718 37.0247 19.7006 -17.948 0.314418 2.72509 29.4954 -27.3251 -4.59275 -17.2088 0.0 0.0 -0.0 0.0 -0.0 34.4831 44.6577 -17.093 -3.66147 -0.133342 -0.546006 -11.2408 3.8984 -1.71995 22.1776 -0.0 -0.0 0.0 0.0 0.0 
2681.60913132 732.45 -1513.42796617 -6.89761208308 49.3140583466 -2.59768109447 2.72802 0.911507 4.25304 2.73785 0.639286 4.30229 2.78379 -0.0676038 4.34892 2.75794 0.619428 4.30519 -3.0709 20.3387 -2.61142 -2.26169 39.096 0.0677722 -0.0 0.0 -0.0 -4.62965 20.8129 -4.30057 -6.18363 -2.90395 49.3493 9.35292 -77.7681 7.54841 2.16964 0.071376 -0.267906 0.304785 -6.41045 -0.662221 -0.0 0.0 -0.0 12.1298 12.8139 -24.5507 -26.2266 48.781 -62.8175 0.949407 25.1876 -0.212114 20.6519 -0.259613 2.61107 -5.41337 -25.212 21.0527 0.0 0.0 0.0 -22.7503 37.4635 16.1743 -21.4102 0.276215 3.25487 30.4398 -28.766 -4.78828 -18.038 0.0 0.0 -0.0 0.0 -0.0 29.6341 44.8141 -14.9984 -4.6365 -0.162938 -0.692715 -4.44291 1.24827 -0.666166 22.6559 -0.0 -0.0 0.0 0.0 0.0 
2682.92423687 732.45 -1517.18532164 -6.65638640807 47.5128168328 -2.92015502313 2.72802 0.911507 4.25304 2.73785 0.639286 4.30229 2.78379 -0.0676038 4.34892 2.75794 0.619428 4.30519 -3.0709 20.3387 -2.61142 -2.26169 39.096 0.0677722 -0.0 0.0 -0.0 -4.62965 20.8129 -4.30057 -6.18363 -2.90395 49.3493 9.35292 -77.7681 7.54841 2.16964 0.071376 -0.267906 0.304785 -6.41045 -0.662221 -0.0 0.0 -0.0 12.1298 12.8139 -24.5507 -26.2266 48.781 -62.8175 0.949407 25.1876 -0.212114 20.6519 -0.259613 2.61107 -5.41337 -25.212 21.0527 0.0 0.0 0.0 -22.7503 37.4635 16.1743 -21.4102 0.276215 3.25487 30.4398 -28.766 -4.78828 -18.038 0.0 0.0 -0.0 0.0 -0.0 29.6341 44.8141 -14.9984 -4.6365 -0.162938 -0.692715 -4.44291 1.24827 -0.666166 22.6559 -0.0 -0.0 0.0 0.0 0.0 
2683.33102594 732.45 -1518.27550213 -6.59023307094 46.9861706607 -3.01024237806 2.72802 0.911507 4.25304 2.73785 0.639286 4.30229 2.78379 -0.0676038 4.34892 2.75794 0.619428 4.30519 -3.0709 20.3387 -2.61142 -2.26169 39.096 0.0677722 -0.0 0.0 -0.0 -4.62965 20.8129 -4.30057 -6.18363 -2.90395 49.3493 9.35292 -77.7681 7.54841 2.16964 0.071376 -0.267906 0.304785 -6.41045 -0.662221 -0.0 0.0 -0.0 12.1298 12.8139 -24.5507 -26.2266 48.781 -62.8175 0.949407 25.1876 -0.212114 20.6519 -0.259613 2.61107 -5.41337 -25.212 21.0527 0.0 0.0 0.0 -22.7503 37.4635 16.1743 -21.4102 0.276215 3.25487 30.4398 -28.766 -4.78828 -18.038 0.0 0.0 -0.0 0.0 -0.0 29.6341 44.8141 -14.9984 -4.6365 -0.162938 -0.692715 -4.44291 1.24827 -0.666166 22.6559 -0.0 -0.0 0.0 0.0 0.0 
2683.61979931 732.45 -1519.03125287 -6.54532847277 46.6199580905 -3.07183914647 2.72802 0.911507 4.25304 2.73785 0.639286 4.30229 2.78379 -0.0676038 4.34892 2.75794 0.619428 4.30519 -3.0709 20.3387 -2.61142 -2.26169 39.096 0.0677722 -0.0 0.0 -0.0 -4.62965 20.8129 -4.30057 -6.18363 -2.90395 49.3493 9.35292 -77.7681 7.54841 2.16964 0.071376 -0.267906 0.304785 -6.41045 -0.662221 -0.0 0.0 -0.0 12.1298 12.8139 -24.5507 -26.2266 48.781 -62.8175 0.949407 25.1876 -0.212114 20.6519 -0.259613 2.61107 -5.41337 -25.212 21.0527 0.0 0.0 0.0 -22.7503 37.4635 16.1743 -21.4102 0.276215 3.25487 30.4398 -28.766 -4.78828 -18.038 0.0 0.0 -0.0 0.0 -0.0 29.6341 44.8141 -14.9984 -4.6365 -0.162938 -0.692715 -4.44291 1.24827 -0.666166 22.6559 -0.0 -0.0 0.0 0.0 0.0 
